<svg xmlns="http://www.w3.org/2000/svg" width="42" height="42" viewBox="0 0 42 42">
  <g id="Group_417" data-name="Group 417" transform="translate(-37 -241)">
    <circle id="Ellipse_25" data-name="Ellipse 25" cx="21" cy="21" r="21" transform="translate(37 241)" fill="#fff"/>
    <g id="business_1_" data-name="business (1)" transform="translate(-1 249)">
      <g id="Group_393" data-name="Group 393" transform="translate(48)">
        <g id="Group_392" data-name="Group 392" transform="translate(0)">
          <path id="Path_87" data-name="Path 87" d="M69.094,3.375H66.563V.844A.844.844,0,0,0,65.719,0H50.531A2.534,2.534,0,0,0,48,2.531V23.625A3.378,3.378,0,0,0,51.375,27H69.094a.844.844,0,0,0,.844-.844V4.219A.844.844,0,0,0,69.094,3.375Zm-9.5,19.97a.843.843,0,0,1-1.255,0c-.54-.6-5.279-5.97-5.279-9a5.906,5.906,0,0,1,11.813,0C64.875,17.375,60.137,22.742,59.6,23.345Zm5.279-19.97H50.531a.844.844,0,0,1,0-1.687H64.875Z" transform="translate(-48)" fill="#f88700"/>
        </g>
      </g>
      <g id="Group_395" data-name="Group 395" transform="translate(56.032 11.445)">
        <g id="Group_394" data-name="Group 394" transform="translate(0.093 -0.257)">
          <circle id="Ellipse_29" data-name="Ellipse 29" cx="3" cy="3" r="3" transform="translate(-0.188 -0.188)" fill="#7f4c0f"/>
        </g>
      </g>
    </g>
  </g>
</svg>
