<svg id="fuel" xmlns="http://www.w3.org/2000/svg" width="29.868" height="32.152" viewBox="0 0 29.868 32.152">
  <path id="Path_31" data-name="Path 31" d="M38.974,6.736l-3.1-4.556L38.051,0l4.556,3.1L41.466,5.518Z" transform="translate(-33.587)" fill="#736e6e"/>
  <g id="Group_378" data-name="Group 378" transform="translate(17.326 5.016)">
    <path id="Path_32" data-name="Path 32" d="M281.545,90.2l-.638-8.518a1.08,1.08,0,0,0-1.073-1H272.1l.891-1.91h6.843a3,3,0,0,1,2.978,2.763l.577,7.634Z" transform="translate(-272.1 -78.778)" fill="#464141"/>
  </g>
  <g id="Group_379" data-name="Group 379">
    <path id="Path_33" data-name="Path 33" fill="#ffe477"/>
    <path id="Path_34" data-name="Path 34" d="M90.148,50.643,88.235,48.73,84.6,52.363l3.018,3.018-2.031,22.4H97.336L97.973,65l-.637-14.356Z" transform="translate(-79.215 -45.627)" fill="#ff9811"/>
    <path id="Path_35" data-name="Path 35" d="M295.076,89.176l-10.4-10.4h-.1v27.136h11.747Z" transform="translate(-266.461 -73.762)" fill="#e98400"/>
  </g>
  <g id="Group_380" data-name="Group 380" transform="translate(15.4 14.793)">
    <path id="Path_36" data-name="Path 36" d="M242,239.983a4.941,4.941,0,0,0-.15.894,2.721,2.721,0,0,0,2.721,2.721l.637-4.365-.637-6.916Z" transform="translate(-241.845 -232.317)" fill="#ffb655"/>
    <path id="Path_37" data-name="Path 37" d="M287.153,239.983l-2.571-7.665V243.6a2.721,2.721,0,0,0,2.721-2.721A4.939,4.939,0,0,0,287.153,239.983Z" transform="translate(-281.861 -232.318)" fill="#ff9811"/>
  </g>
</svg>
