<svg id="Group_382" data-name="Group 382" xmlns="http://www.w3.org/2000/svg" width="28.594" height="33.244" viewBox="0 0 28.594 33.244">
  <g id="Payment-Money">
    <path id="Path_12" data-name="Path 12" d="M48.8,33l-3.3,4.4H43.3L40,33Z" transform="translate(-30.102 -33)" fill="#ff9811"/>
    <path id="Path_13" data-name="Path 13" d="M46.95,37.649A2.15,2.15,0,0,1,47.6,39.2a2.206,2.206,0,0,1-2.2,2.2H43.2a2.2,2.2,0,0,1,0-4.4h2.2A2.15,2.15,0,0,1,46.95,37.649Z" transform="translate(-30.002 -32.601)" fill="#ee8700"/>
    <path id="Path_20" data-name="Path 20" d="M58.945,61.278a2.049,2.049,0,0,0-1.551-.721V52c0-6.075-4.431-11-9.9-11H43.1a9.148,9.148,0,0,0-5.5,1.858,9.725,9.725,0,0,0-1.892,1.833A11.642,11.642,0,0,0,33.2,52v8.556a2.049,2.049,0,0,0-1.551.721,2.2,2.2,0,0,0-.352.5A2.656,2.656,0,0,0,31,63a2.349,2.349,0,0,0,2.2,2.445h24.2A2.339,2.339,0,0,0,59.594,63,2.529,2.529,0,0,0,58.945,61.278Z" transform="translate(-31 -32.202)" fill="#ff9811"/>
    <path id="Path_23" data-name="Path 23" d="M49,51h2.2v2.2H49Z" transform="translate(-29.204 -29.508)" fill="#464141"/>
    <path id="Path_24" data-name="Path 24" d="M37,51h2.2v2.2H37Z" transform="translate(-30.401 -29.508)" fill="#464141"/>
  </g>
  <g id="signs" transform="translate(11.076 17.492)">
    <path id="Path_38" data-name="Path 38" d="M80.64,2.811a.274.274,0,0,0-.2-.079H78.931a3.05,3.05,0,0,0-.564-1.269H80.42a.271.271,0,0,0,.282-.282v-.9A.271.271,0,0,0,80.42,0H73.088a.271.271,0,0,0-.282.282V1.454a.286.286,0,0,0,.282.282h1.278q1.859,0,2.362,1h-3.64a.271.271,0,0,0-.282.282v.9a.271.271,0,0,0,.282.282h3.763a1.722,1.722,0,0,1-.9,1.1,3.977,3.977,0,0,1-1.873.379h-.987a.286.286,0,0,0-.282.282V7.077a.263.263,0,0,0,.079.194q1.692,1.8,4.389,5.032a.26.26,0,0,0,.22.106h1.718a.256.256,0,0,0,.256-.159.241.241,0,0,0-.035-.3Q76.86,8.795,75.388,7.226a4.469,4.469,0,0,0,2.432-.969,3.3,3.3,0,0,0,1.137-2.062h1.481a.272.272,0,0,0,.282-.282v-.9A.274.274,0,0,0,80.64,2.811Z" transform="translate(-72.806 0)" fill="#464141"/>
  </g>
</svg>
