<svg xmlns="http://www.w3.org/2000/svg" width="42" height="42" viewBox="0 0 42 42">
  <g id="Group_415" data-name="Group 415" transform="translate(-35 -119)">
    <circle id="Ellipse_23" data-name="Ellipse 23" cx="21" cy="21" r="21" transform="translate(35 119)" fill="#fff"/>
    <g id="people" transform="translate(42 118.211)">
      <path id="Path_74" data-name="Path 74" d="M24.777,180.991H3.223A3.226,3.226,0,0,0,0,184.214v19.335a1.075,1.075,0,0,0,1.745.839l5.077-4.061H24.777A3.226,3.226,0,0,0,28,197.1v-12.89A3.226,3.226,0,0,0,24.777,180.991Z" transform="translate(0 -169.405)" fill="#f88700"/>
      <path id="Path_75" data-name="Path 75" d="M209.5,184.214V197.1a3.226,3.226,0,0,1-3.223,3.223H195.5V180.991h10.777A3.226,3.226,0,0,1,209.5,184.214Z" transform="translate(-181.5 -169.405)" fill="#e57d00"/>
      <path id="Path_76" data-name="Path 76" d="M212.074,242.858h6.445a.943.943,0,1,0,0-1.867h-6.445a.943.943,0,1,0,0,1.867Z" transform="translate(-195.89 -223.827)" fill="#1e1e1e" opacity="0.51"/>
      <path id="Path_77" data-name="Path 77" d="M218.519,300.991h-6.445a.923.923,0,1,0,0,1.82h6.445a.923.923,0,1,0,0-1.82Z" transform="translate(-195.89 -280.484)" fill="#1e1e1e" opacity="0.51"/>
      <path id="Path_78" data-name="Path 78" d="M218.519,360.991h-6.445a.9.9,0,1,0,0,1.767h6.445a.9.9,0,1,0,0-1.767Z" transform="translate(-195.89 -337.134)" fill="#1e1e1e" opacity="0.51"/>
      <path id="Path_79" data-name="Path 79" d="M63.842,301.16a4.292,4.292,0,0,0-4.409,4.154v.435a1.007,1.007,0,0,0,1.074.922h6.67a1.007,1.007,0,0,0,1.074-.922v-.435A4.292,4.292,0,0,0,63.842,301.16Z" transform="translate(-55.177 -280.059)" fill="#fff"/>
      <circle id="Ellipse_28" data-name="Ellipse 28" cx="2.223" cy="2.223" r="2.223" transform="translate(6.442 15.918)" fill="#fff"/>
    </g>
  </g>
</svg>
