<svg xmlns="http://www.w3.org/2000/svg" width="42" height="42" viewBox="0 0 42 42">
  <g id="Group_416" data-name="Group 416" transform="translate(-35 -180)">
    <circle id="Ellipse_24" data-name="Ellipse 24" cx="21" cy="21" r="21" transform="translate(35 180)" fill="#fff"/>
    <g id="transport_1_" data-name="transport (1)" transform="translate(41.375 186)">
      <path id="Path_80" data-name="Path 80" d="M23.438,30.042H4.956A.956.956,0,0,1,4,29.086V2.956A.956.956,0,0,1,4.956,2H23.438a.956.956,0,0,1,.956.956v26.13A.956.956,0,0,1,23.438,30.042Z" transform="translate(0.275 0.549)" fill="#f88700"/>
      <path id="Path_81" data-name="Path 81" d="M18.417,0H13.956A.956.956,0,0,0,13,.956V3.505a.956.956,0,0,0,.956.956h4.461a.956.956,0,0,0,.956-.956V.956A.956.956,0,0,0,18.417,0Z" transform="translate(2.746)" fill="#7f4c0f"/>
      <g id="Group_391" data-name="Group 391" transform="translate(3.625 2.549)">
        <path id="Path_82" data-name="Path 82" d="M23.724,3.912H3.9A.93.93,0,0,1,3,2.956.93.93,0,0,1,3.9,2H23.724a.93.93,0,0,1,.9.956A.93.93,0,0,1,23.724,3.912Z" transform="translate(-3 -2)" fill="#e57d00"/>
        <path id="Path_83" data-name="Path 83" d="M23.724,24.412H3.9a.958.958,0,0,1,0-1.912H23.724a.958.958,0,0,1,0,1.912Z" transform="translate(-3 3.63)" fill="#e57d00"/>
        <path id="Path_84" data-name="Path 84" d="M23.724,8.912H3.9A.958.958,0,0,1,3.9,7H23.724a.958.958,0,0,1,0,1.912Z" transform="translate(-3 -0.627)" fill="#e57d00"/>
        <path id="Path_85" data-name="Path 85" d="M23.724,19.412H3.9a.958.958,0,0,1,0-1.912H23.724a.958.958,0,0,1,0,1.912Z" transform="translate(-3 2.257)" fill="#e57d00"/>
      </g>
      <path id="Path_86" data-name="Path 86" d="M12.824,18.419C10.985,18.419,9,17.2,9,15.216c0-1.574,2.366-4.515,3.092-5.379a.988.988,0,0,1,1.463,0c.727.864,3.092,3.8,3.092,5.379C16.648,17.2,14.663,18.419,12.824,18.419Z" transform="translate(1.648 2.612)" fill="#fff"/>
    </g>
  </g>
</svg>
