<svg xmlns="http://www.w3.org/2000/svg" width="29.75" height="30.861" viewBox="0 0 29.75 30.861">
  <path id="petrol" d="M32.376.213,31.9.073A1.838,1.838,0,0,0,31.384,0a2.069,2.069,0,0,0-1.812,1.071l-4.6,8.919a5.111,5.111,0,0,0-.982-.1H19.228V9.326a2.744,2.744,0,0,0-.035-.415h2.07a1.709,1.709,0,0,0,0-3.417H11.742a1.709,1.709,0,0,0,0,3.417h2.07a2.724,2.724,0,0,0-.035.415v.567H10.383c-2.588,0-4.448,1.837-5.1,5.041A104.466,104.466,0,0,0,3.91,25.691,4.619,4.619,0,0,0,5.2,29.165a5.264,5.264,0,0,0,3.823,1.658h7.046c.031,0,.062,0,.094.005l9.061.034h.007a2.131,2.131,0,0,0,2-1.583L33.6,2.328A1.8,1.8,0,0,0,32.376.213ZM16.8,26.6a4.508,4.508,0,0,1-5.081-4.108c-.181-2.638,4.2-5.459,4.246-8.055.032-1.867,5.126,4.761,5.307,7.4A4.508,4.508,0,0,1,16.8,26.6Z" transform="translate(-3.901)"/>
</svg>
