<svg xmlns="http://www.w3.org/2000/svg" width="42" height="42" viewBox="0 0 42 42">
  <g id="Group_418" data-name="Group 418" transform="translate(-37 -303)">
    <circle id="Ellipse_26" data-name="Ellipse 26" cx="21" cy="21" r="21" transform="translate(37 303)" fill="#fff"/>
    <path id="Path_88" data-name="Path 88" d="M15.264,332.9V331H0v1.91a3.151,3.151,0,0,0,3.127,3.158H16.8c-.131-.119-.258-.224-.377-.344a3.979,3.979,0,0,1-1.161-2.823Zm0,0" transform="translate(44.168 1.334)" fill="#f88700"/>
    <path id="Path_89" data-name="Path 89" d="M163.964,60.449l1.961,1.346,1.968-1.346a2.494,2.494,0,0,0,.966-1.847V55.82l-2.93-1.449L163,55.816C163,59.253,163.425,60.082,163.964,60.449Z" transform="translate(-108.734 261.951)" fill="#7f4c0f"/>
    <path id="Path_90" data-name="Path 90" d="M391.26,0h-.013A2.269,2.269,0,0,0,389,2.252v3.83h4.472V2.244A2.234,2.234,0,0,0,391.26,0Zm0,0" transform="translate(-321.639 312.598)" fill="#f88700"/>
    <g id="Group_396" data-name="Group 396">
      <path id="Path_91" data-name="Path 91" d="M72.352,0a2.092,2.092,0,0,0-2.1,2.073L70.125,18.9h11.5a.435.435,0,0,1,.417.437v2.3A3.159,3.159,0,0,0,85.179,24.8h.01A3.137,3.137,0,0,0,88.3,21.645V2.252A3.2,3.2,0,0,1,89.291,0Zm2.476,4.614a.406.406,0,0,1,.221-.375L78.786,2.4a.41.41,0,0,1,.364,0L82.9,4.244a.406.406,0,0,1,.221.375v3.4A3.638,3.638,0,0,1,81.661,10.8l-2.452,1.681a.412.412,0,0,1-.234.073.406.406,0,0,1-.232-.073L76.284,10.8a3.641,3.641,0,0,1-1.456-2.776ZM84.9,16.993H73.457a.417.417,0,0,1,0-.835H84.9a.417.417,0,1,1,0,.835Zm0-2.206H73.457a.417.417,0,0,1,0-.835H84.9a.417.417,0,1,1,0,.835Zm0,0" transform="translate(-21.777 312.598)" fill="#f88700"/>
      <rect id="Rectangle_109" data-name="Rectangle 109" width="14" height="5" transform="translate(51 326)" fill="#f88700"/>
    </g>
  </g>
</svg>
