<svg xmlns="http://www.w3.org/2000/svg" width="11.806" height="13.993" viewBox="0 0 11.806 13.993">
  <g id="call" transform="translate(-39.996)">
    <path id="Path_59" data-name="Path 59" d="M49.4,0h-7A2.408,2.408,0,0,0,40,2.4v7a2.408,2.408,0,0,0,2.4,2.405H44.34l1.184,1.974a.437.437,0,0,0,.75,0l1.184-1.974H49.4A2.408,2.408,0,0,0,51.8,9.4v-7A2.408,2.408,0,0,0,49.4,0Zm.189,8.3-.928.928a1.43,1.43,0,0,1-1.048.391c-2.722,0-6.833-4.878-5.136-6.575l.928-.928a.437.437,0,0,1,.618,0l1.7,1.7a.437.437,0,0,1,0,.618l-.818.818A3.951,3.951,0,0,0,46.449,6.8l.818-.818a.437.437,0,0,1,.618,0l1.7,1.7A.437.437,0,0,1,49.586,8.3Z" fill="#ffa000"/>
  </g>
</svg>
