<svg xmlns="http://www.w3.org/2000/svg" width="12.067" height="14.065" viewBox="0 0 12.067 14.065">
  <g id="Group_387" data-name="Group 387" transform="translate(-14.015 -190)">
    <g id="gasoline" transform="translate(-21.857 190)">
      <path id="Path_50" data-name="Path 50" d="M36.826,0l-.954.954L36.99,2.6l1.477-1.477Z" fill="#ffa000"/>
      <path id="Path_51" data-name="Path 51" d="M262.48,292.483a.634.634,0,0,0,.633-.633,1.5,1.5,0,0,0-.041-.228l-.592-1.765-.592,1.765a1.491,1.491,0,0,0-.041.227A.634.634,0,0,0,262.48,292.483Z" transform="translate(-219.68 -281.783)" fill="#ffa000"/>
      <path id="Path_52" data-name="Path 52" d="M105.622,71.749l-.8-10.662a1.312,1.312,0,0,0-1.3-1.209h-6.18l-.542-.542-1.589,1.589,1.025,1.025-.888,9.8h10.278Zm-2.1-11.035a.473.473,0,0,1,.469.436l.177,2.369-2.8-2.8ZM99.086,67.3l1.4-4.17,1.4,4.17a2.135,2.135,0,0,1,.072.45,1.469,1.469,0,0,1-2.938,0A2.134,2.134,0,0,1,99.086,67.3Z" transform="translate(-57.683 -57.683)" fill="#ffa000"/>
    </g>
    <rect id="Rectangle_106" data-name="Rectangle 106" width="5" height="7" transform="translate(18 195)" fill="#ffa000"/>
  </g>
</svg>
