<svg xmlns="http://www.w3.org/2000/svg" width="13.761" height="13.776" viewBox="0 0 13.761 13.776">
  <g id="purchase" transform="translate(-309.591 -112.68)">
    <path id="Path_47" data-name="Path 47" d="M310.947,114.1c-.224,0-.43.005-.637,0a.693.693,0,0,1-.719-.718.684.684,0,0,1,.734-.7c.38,0,.76,0,1.141,0a.738.738,0,0,1,.84.752q.166,1.223.333,2.445c0,.027.011.053.025.12h10.031c.586,0,.751.209.61.775q-.631,2.537-1.265,5.074a.946.946,0,0,1-1.008.8q-4.061.006-8.121,0a.933.933,0,0,1-1-.87c-.148-1.111-.275-2.225-.414-3.337C311.315,117,311.132,115.563,310.947,114.1Z" transform="translate(0 0)" fill="#ffa000" fill-rule="evenodd"/>
    <path id="Path_48" data-name="Path 48" d="M363.221,316.665a1.425,1.425,0,1,1,1.43-1.435A1.446,1.446,0,0,1,363.221,316.665Z" transform="translate(-49.356 -190.209)" fill="#ffa000" fill-rule="evenodd"/>
    <path id="Path_49" data-name="Path 49" d="M468.215,316.663a1.425,1.425,0,1,1,1.437-1.429A1.443,1.443,0,0,1,468.215,316.663Z" transform="translate(-148.653 -190.207)" fill="#ffa000" fill-rule="evenodd"/>
  </g>
</svg>
