<svg xmlns="http://www.w3.org/2000/svg" width="13.667" height="13.667" viewBox="0 0 13.667 13.667">
  <path id="symbol" d="M13.345,5.277l-1.05-.228a5.717,5.717,0,0,0-.338-.815l.582-.9a.408.408,0,0,0-.055-.51L10.847,1.183a.408.408,0,0,0-.51-.055l-.9.582a5.717,5.717,0,0,0-.815-.338L8.389.321A.408.408,0,0,0,7.99,0H5.676a.408.408,0,0,0-.4.322l-.228,1.05a5.716,5.716,0,0,0-.815.338l-.9-.582a.408.408,0,0,0-.51.055L1.183,2.819a.408.408,0,0,0-.055.51l.582.9a5.717,5.717,0,0,0-.338.815l-1.05.228a.408.408,0,0,0-.322.4V7.99a.408.408,0,0,0,.322.4l1.05.228a5.717,5.717,0,0,0,.338.815l-.582.9a.408.408,0,0,0,.055.51L2.82,12.483a.408.408,0,0,0,.51.055l.9-.582a5.717,5.717,0,0,0,.815.338l.228,1.05a.408.408,0,0,0,.4.322H7.99a.408.408,0,0,0,.4-.322l.228-1.05a5.717,5.717,0,0,0,.815-.338l.9.582a.408.408,0,0,0,.51-.055l1.636-1.636a.408.408,0,0,0,.055-.51l-.582-.9a5.717,5.717,0,0,0,.338-.815l1.05-.228a.408.408,0,0,0,.322-.4V5.676A.408.408,0,0,0,13.345,5.277ZM9.283,6.833a2.45,2.45,0,1,1-2.45-2.45A2.453,2.453,0,0,1,9.283,6.833Zm0,0" transform="translate(0 0)" fill="#ffa000"/>
</svg>
